<?xml version="1.0" encoding="utf-8"?>
<!-- Generator: Adobe Illustrator 21.1.0, SVG Export Plug-In . SVG Version: 6.00 Build 0)  -->
<svg version="1.1" id="Layer_1" xmlns="http://www.w3.org/2000/svg" xmlns:xlink="http://www.w3.org/1999/xlink" x="0px" y="0px"
	 viewBox="0 0 115 30" style="enable-background:new 0 0 115 30;" xml:space="preserve">
<style type="text/css">
	.st0{fill:#872526;}
	.st1{fill:#CF772A;}
</style>
<path class="st0" d="M25.1,10.7h-7.6c-0.1,0-0.2,0.1-0.2,0.2v3.5h8.9c0,1.1-0.9,2-2,2h-6.9v4.5c0,1.1-0.9,2-2,2V10.7
	c0-1.1,0.9-2,2-2H27C27,9.8,26.2,10.6,25.1,10.7z"/>
<path class="st0" d="M31.1,22.8c-1.1,0-2-1-1.9-2.1l0,0V8.6c1.1,0,2,0.9,2,2.1v9.8c0,0.1,0.1,0.2,0.2,0.3l0,0h7.2c1.1,0,2,0.9,2,2.1
	h-9.5V22.8z"/>
<path class="st0" d="M44.9,22.9c-1.1,0-2-0.9-2-2V8.6c1.1,0,2,0.9,2,2V22.9z"/>
<path class="st0" d="M58.5,16.5c-1.2,0.6-2.6,1-4,0.9h-4.1c0-1.1,0.8-2,1.9-2.1c0,0,0,0,0.1,0h2.2c1,0.1,2.1-0.2,3-0.6
	c0.6-0.3,1-1,1-1.7c0-0.6,0-2.2-4-2.2H50c-0.1,0-0.2,0.1-0.3,0.2l0,0v10c0,1.1-0.9,2-2,2V10.6c0-1,0.9-1.9,1.9-1.9h4.7
	c5.2,0,6,2.7,6,4.3C60.5,14.4,59.7,15.8,58.5,16.5z"/>
<path class="st1" d="M62.6,22.9V8.6c1.1,0,2,0.9,2,2v10.3C64.6,22,63.7,22.9,62.6,22.9L62.6,22.9z M76.4,22.3
	c-0.4,0.6-1.2,0.8-1.8,0.4l0,0L65.8,17c-0.5-0.3-0.8-0.8-0.8-1.4c0-0.5,0.2-1.1,0.7-1.4l8.4-5.4c0.6-0.3,1.4-0.1,1.8,0.4
	c0.1,0.2,0.2,0.4,0.3,0.6l-8.8,5.8l9.3,6.1C76.6,21.9,76.6,22.1,76.4,22.3z"/>
<path class="st1" d="M89.3,10.7h-8.6c-0.1,0-0.2,0.1-0.2,0.2v3.5h9.3c0,1.1-0.9,2-2,2h-7.3v4.1c0,0.1,0.1,0.2,0.2,0.2H89
	c1.1,0,2,0.9,2,2H80.5c-1.1,0-2-0.9-2-2v-10c0-1.1,0.9-2,2-2h10.8C91.2,9.8,90.4,10.6,89.3,10.7z"/>
<path class="st1" d="M101.8,18.2v4.7h-0.1c-1.1,0-2-0.9-2-2v-2.8L92.6,9c0.8-0.7,2-0.6,2.8,0.2l5.4,6.9l5.4-6.9
	c0.7-0.8,1.9-0.9,2.8-0.2l0,0L101.8,18.2z"/>
<path class="st1" d="M111.7,8.3c0.3,0,0.6,0.1,0.8,0.2c0.3,0.1,0.5,0.4,0.6,0.6c0.3,0.5,0.3,1.2,0,1.7c-0.1,0.3-0.4,0.5-0.6,0.6
	c-0.5,0.3-1.2,0.3-1.7,0c-0.3-0.1-0.5-0.4-0.6-0.6c-0.3-0.5-0.3-1.2,0-1.7c0.1-0.3,0.4-0.5,0.6-0.6C111.2,8.4,111.4,8.3,111.7,8.3z
	 M111.7,8.6c-0.2,0-0.5,0.1-0.7,0.2c-0.2,0.1-0.4,0.3-0.5,0.5c-0.3,0.4-0.3,1,0,1.4c0.1,0.2,0.3,0.4,0.5,0.5c0.4,0.3,1,0.3,1.4,0
	c0.2-0.1,0.4-0.3,0.5-0.5c0.2-0.4,0.2-1,0-1.4c-0.1-0.2-0.3-0.4-0.5-0.5C112.2,8.6,112,8.6,111.7,8.6z M111,10.9V9.1h0.6
	c0.2,0,0.3,0,0.5,0c0.1,0,0.2,0.1,0.2,0.2c0.1,0.1,0.1,0.2,0.1,0.3s0,0.3-0.1,0.4c-0.1,0.1-0.2,0.2-0.4,0.2c0.1,0,0.1,0.1,0.2,0.1
	c0.1,0.1,0.2,0.2,0.3,0.4l0.2,0.4h-0.4l-0.2-0.3c-0.1-0.2-0.2-0.3-0.3-0.4c-0.1,0-0.1-0.1-0.2-0.1h-0.2v0.8L111,10.9L111,10.9z
	 M111.3,9.9h0.3c0.1,0,0.3,0,0.4-0.1s0.1-0.2,0-0.3l-0.1-0.1c-0.1,0-0.2,0-0.3,0h-0.3V9.9L111.3,9.9z"/>
<path class="st1" d="M8.4,8V7.3c0-0.2,0.2-0.4,0.4-0.4h0.8c0.2,0,0.4,0.2,0.4,0.4v1.4"/>
<path class="st1" d="M6.3,7.7c-0.2-0.1-0.5-0.1-0.7,0l-3.7,2.7v3.3c0,0.6,0.4,1,1,1h1.5v1h0.8v0.9l-0.5,0.7L5.6,18l-0.8,0.6v1.1
	l0.4,0.6v1.1L4.8,22l1.1,1.2h0.7l0.9-1.1v-7.5H9c0.6,0,1-0.4,1-1v-3.3L6.3,7.7z M4.5,12.4c0-0.5,0.4-0.9,0.9-0.9l0,0h1.1
	c0.5,0,0.9,0.4,0.9,0.9V14H4.5V12.4z"/>
<path class="st1" d="M11.4,10.5c-0.1,0-0.2,0-0.3-0.1L6.4,7.1C6.3,7,6.1,7,6,7S5.7,7,5.6,7.1l-4.7,3.3c-0.3,0.2-0.7,0.1-0.8-0.2
	S0,9.6,0.3,9.4l0,0L5,6.1C5.3,6,5.6,5.8,6,5.8s0.8,0.1,1.1,0.3l4.7,3.3c0.3,0.2,0.3,0.6,0.1,0.8C11.8,10.4,11.6,10.5,11.4,10.5
	L11.4,10.5z"/>
</svg>
